HIERARCHY
ROOT Hips
{
	OFFSET 0.000000 0.000000 0.000000
	CHANNELS 6 Xposition Yposition Zposition Zrotation Yrotation Xrotation 
	JOINT LHipJoint
	{
		OFFSET 0.000000 0.000000 0.000000
		CHANNELS 3 Zrotation Yrotation Xrotation
		JOINT LeftUpLeg
		{
			OFFSET 1.363060 -1.794630 0.839290
			CHANNELS 3 Zrotation Yrotation Xrotation
			JOINT LeftLeg
			{
				OFFSET 2.448110 -6.726130 0.000000
				CHANNELS 3 Zrotation Yrotation Xrotation
				JOINT LeftFoot
				{
					OFFSET 2.562200 -7.039590 0.000000
					CHANNELS 3 Zrotation Yrotation Xrotation
					JOINT LeftToeBase
					{
						OFFSET 0.157640 -0.433110 2.322550
						CHANNELS 3 Zrotation Yrotation Xrotation
						End Site
						{
							OFFSET 0.000000 0.000000 0.000000
						}
					}
				}
			}
		}
	}
	JOINT RHipJoint
	{
		OFFSET 0.000000 0.000000 0.000000
		CHANNELS 3 Zrotation Yrotation Xrotation
		JOINT RightUpLeg
		{
			OFFSET -1.305520 -1.794630 0.839290
			CHANNELS 3 Zrotation Yrotation Xrotation
			JOINT RightLeg
			{
				OFFSET -2.542530 -6.985550 0.000000
				CHANNELS 3 Zrotation Yrotation Xrotation
				JOINT RightFoot
				{
					OFFSET -2.568260 -7.056230 0.000000
					CHANNELS 3 Zrotation Yrotation Xrotation
					JOINT RightToeBase
					{
						OFFSET -0.164730 -0.452590 2.363150
						CHANNELS 3 Zrotation Yrotation Xrotation
						End Site
						{
							OFFSET 0.000000 0.000000 0.000000
						}
					}
				}
			}
		}
	}
	JOINT LowerBack
	{
		OFFSET 0.000000 0.000000 0.000000
		CHANNELS 3 Zrotation Yrotation Xrotation
		JOINT Spine
		{
			OFFSET 0.028270 2.035590 -0.193380
			CHANNELS 3 Zrotation Yrotation Xrotation
			JOINT Spine1
			{
				OFFSET 0.056720 2.048850 -0.042750
				CHANNELS 3 Zrotation Yrotation Xrotation
				JOINT Neck
				{
					OFFSET 0.000000 0.000000 0.000000
					CHANNELS 3 Zrotation Yrotation Xrotation
					JOINT Neck1
					{
						OFFSET -0.054170 1.746240 0.172020
						CHANNELS 3 Zrotation Yrotation Xrotation
						JOINT Head
						{
							OFFSET 0.104070 1.761360 -0.123970
							CHANNELS 3 Zrotation Yrotation Xrotation
							End Site
							{
								OFFSET 0.000000 0.000000 0.000000
							}
						}
					}
				}
				JOINT LeftShoulder
				{
					OFFSET 0.000000 0.000000 0.000000
					CHANNELS 3 Zrotation Yrotation Xrotation
					JOINT LeftArm
					{
						OFFSET 3.362410 1.200890 -0.311210
						CHANNELS 3 Zrotation Yrotation Xrotation
						JOINT LeftForeArm
						{
							OFFSET 4.983000 -0.000000 -0.000000
							CHANNELS 3 Zrotation Yrotation Xrotation
							JOINT LeftHand
							{
								OFFSET 3.483560 -0.000000 -0.000000
								CHANNELS 3 Zrotation Yrotation Xrotation
								JOINT LeftFingerBase
								{
									OFFSET 0.000000 0.000000 0.000000
									CHANNELS 3 Zrotation Yrotation Xrotation
									JOINT LeftHandIndex1
									{
										OFFSET 0.715260 -0.000000 -0.000000
										CHANNELS 3 Zrotation Yrotation Xrotation
										End Site
										{
											OFFSET 0.000000 0.000000 0.000000
										}
									}
								}
								JOINT LThumb
								{
									OFFSET 0.000000 0.000000 0.000000
									CHANNELS 3 Zrotation Yrotation Xrotation
									End Site
									{
										OFFSET 0.000000 0.000000 0.000000
									}
								}
							}
						}
					}
				}
				JOINT RightShoulder
				{
					OFFSET 0.000000 0.000000 0.000000
					CHANNELS 3 Zrotation Yrotation Xrotation
					JOINT RightArm
					{
						OFFSET -3.136600 1.374050 -0.404650
						CHANNELS 3 Zrotation Yrotation Xrotation
						JOINT RightForeArm
						{
							OFFSET -5.241900 -0.000000 -0.000000
							CHANNELS 3 Zrotation Yrotation Xrotation
							JOINT RightHand
							{
								OFFSET -3.444170 -0.000000 -0.000000
								CHANNELS 3 Zrotation Yrotation Xrotation
								JOINT RightFingerBase
								{
									OFFSET 0.000000 0.000000 0.000000
									CHANNELS 3 Zrotation Yrotation Xrotation
									JOINT RightHandIndex1
									{
										OFFSET -0.622530 -0.000000 -0.000000
										CHANNELS 3 Zrotation Yrotation Xrotation
										End Site
										{
											OFFSET 0.000000 0.000000 0.000000
										}
									}
								}
								JOINT RThumb
								{
									OFFSET 0.000000 0.000000 0.000000
									CHANNELS 3 Zrotation Yrotation Xrotation
									End Site
									{
										OFFSET 0.000000 0.000000 0.000000
									}
								}
							}
						}
					}
				}
			}
		}
	}
}
MOTION
Frames: 12
Frame Time: 0.008333
-8.913333 17.966517 5.735499 -30.964575 80.582363 -15.683347 -1.345061 -0.709951 0.200116 -3.769644 -1.730308 -26.795197 0.594541 8.562003 24.725775 0.262717 0.044370 0.362464 0.860500 -5.915200 -16.538700 5.511846 1.022387 0.584062 8.393623 9.409041 -28.407315 -1.709269 -8.310841 24.295462 0.232057 -2.270435 1.442921 -0.033300 1.178100 -3.238900 -1.724209 0.419551 4.877869 4.149669 0.387885 9.257828 4.879687 0.196636 0.621132 0.821486 -1.473752 -9.951785 -0.584843 1.993854 37.740572 -1.636000 2.152600 19.351900 0.385809 5.404896 -2.021748 -96.907678 -17.290312 83.359051 31.970005 -44.801308 -12.552332 -0.681612 1.098648 -62.112511 16.654013 63.416942 14.276100 -7.125000 0.000000 0.000000 166.922100 4.123500 12.438300 0.541058 -4.161868 -2.000235 85.363459 15.547022 76.222319 -36.282631 47.982301 -15.850320 -0.288795 -0.636049 -63.170175 -43.669063 -13.512243 12.384900 7.125000 0.000000 0.000000 -15.152900 -47.727500 1.042400 
-8.911931 17.967318 5.733496 -30.713453 80.619116 -15.423459 -1.350027 -0.708767 0.202499 -3.834802 -1.771746 -26.788602 0.587325 8.556441 24.706825 0.250068 0.104224 0.339712 0.888100 -6.006900 -16.804500 5.519506 1.022765 0.582577 8.289435 9.503220 -28.370119 -1.708151 -8.309671 24.287990 0.259578 -2.443692 1.337719 -0.036000 1.225600 -3.369600 -1.730484 0.417832 4.837915 4.073975 0.383787 9.274222 4.860416 0.191271 0.649273 0.848030 -1.472959 -9.958810 -0.544444 1.969741 37.720648 -1.624400 2.150700 19.337800 0.389823 5.404970 -2.024735 -96.776444 -17.322696 83.417067 32.062281 -44.872668 -12.614466 -0.687486 1.098340 -62.291237 16.985506 63.512594 14.587700 -7.125000 0.000000 0.000000 167.000700 4.249700 12.328000 0.545895 -4.159305 -2.000289 85.404667 15.565149 76.267009 -36.344420 48.022718 -15.894381 -0.288243 -0.635922 -63.322836 -43.743772 -13.436491 12.352000 7.125000 0.000000 0.000000 -15.217500 -47.647100 1.016200 
-8.910630 17.967218 5.731494 -30.805636 80.635221 -15.485503 -1.353993 -0.710936 0.201055 -3.819681 -1.822250 -26.779506 0.580960 8.546511 24.674296 0.243954 0.137729 0.305668 0.921600 -6.116300 -17.122100 5.517867 1.022305 0.581090 8.277203 9.513174 -28.391467 -1.708969 -8.310204 24.291935 0.263319 -2.463777 1.290228 -0.033800 1.187400 -3.264600 -1.713911 0.406356 4.800880 4.061181 0.368693 9.266107 4.845836 0.183277 0.666589 0.849422 -1.442887 -9.905489 -0.524023 1.998208 37.667838 -1.611600 2.162200 19.289100 0.391304 5.401794 -2.025145 -96.676298 -17.325320 83.424402 32.144002 -44.937847 -12.673985 -0.687463 1.099562 -62.412459 17.132306 63.380257 14.701000 -7.125000 0.000000 0.000000 167.066000 4.138100 12.290200 0.548202 -4.159973 -2.000848 85.421282 15.552718 76.326684 -36.381322 48.047044 -15.922141 -0.287250 -0.635258 -63.405096 -43.689169 -13.388918 12.287900 7.125000 0.000000 0.000000 -15.154900 -47.575300 0.984500 
-8.909929 17.966517 5.730493 -30.891220 80.645535 -15.548304 -1.354694 -0.712471 0.200224 -3.815731 -1.812133 -26.790821 0.576733 8.538768 24.649953 0.247836 0.121442 0.288503 0.954000 -6.219900 -17.423900 5.515566 1.023043 0.580811 8.282415 9.488493 -28.419100 -1.709348 -8.309473 24.292714 0.257562 -2.427468 1.317950 -0.029300 1.105400 -3.038900 -1.727414 0.400058 4.766213 4.083005 0.359622 9.273633 4.860449 0.178599 0.691864 0.784407 -1.433764 -9.902884 -0.497909 2.023715 37.653712 -1.583900 2.163800 19.279000 0.391730 5.403050 -2.025635 -96.646676 -17.331988 83.397721 32.179350 -44.966182 -12.700694 -0.686441 1.100586 -62.493772 17.208119 63.253137 14.750800 -7.125000 0.000000 0.000000 167.110700 4.024400 12.273400 0.547478 -4.157711 -2.000163 85.446734 15.575863 76.349456 -36.344466 48.023177 -15.895956 -0.287243 -0.635744 -63.378812 -43.659889 -13.419740 12.301800 7.125000 0.000000 0.000000 -15.129600 -47.608400 0.995300 
-8.909229 17.967018 5.729092 -30.650583 80.674839 -15.320952 -1.357332 -0.710555 0.203171 -3.885207 -1.788332 -26.788106 0.572296 8.534590 24.639008 0.246708 0.122880 0.304613 0.956700 -6.228500 -17.448800 5.518219 1.026809 0.581528 8.223531 9.456751 -28.407828 -1.708372 -8.310515 24.290564 0.257789 -2.430996 1.321042 -0.033100 1.174000 -3.227600 -1.767405 0.398190 4.769018 4.061880 0.354972 9.285535 4.878854 0.175416 0.696481 0.782366 -1.438588 -9.914954 -0.534456 2.033978 37.672179 -1.599800 2.163700 19.298300 0.393187 5.403104 -2.025013 -96.639874 -17.312154 83.323574 32.162372 -44.953961 -12.689989 -0.685398 1.101407 -62.546271 17.197217 63.146376 14.725400 -7.125000 0.000000 0.000000 167.126800 3.920400 12.282700 0.548453 -4.158721 -2.000934 85.472998 15.598497 76.387365 -36.311723 48.002226 -15.872896 -0.286605 -0.637316 -63.363554 -43.619607 -13.508802 12.360600 7.125000 0.000000 0.000000 -15.101500 -47.712900 1.033100 
-8.908428 17.968219 5.726889 -30.489162 80.707207 -15.148347 -1.359328 -0.712469 0.201885 -3.933955 -1.794517 -26.798517 0.566435 8.527872 24.618751 0.250370 0.098746 0.354669 0.927000 -6.133600 -17.172400 5.519043 1.030217 0.580366 8.171232 9.428024 -28.427555 -1.708892 -8.312632 24.295257 0.259754 -2.444126 1.307918 -0.042900 1.337400 -3.677800 -1.746078 0.405960 4.767978 3.993436 0.365879 9.256540 4.843337 0.179154 0.679975 0.891687 -1.446035 -9.883244 -0.592315 2.009090 37.685401 -1.651200 2.167300 19.301100 0.394316 5.399066 -2.023831 -96.605897 -17.270826 83.311098 32.125436 -44.925492 -12.661814 -0.685407 1.108845 -62.543279 17.930927 63.131300 15.381500 -7.125000 0.000000 0.000000 167.341900 3.987500 12.050500 0.552961 -4.163932 -2.000755 85.558595 15.575096 76.378165 -36.250642 47.962214 -15.830546 -0.286069 -0.637972 -63.293905 -43.489722 -13.607904 12.389800 7.125000 0.000000 0.000000 -14.984000 -47.811800 1.062000 
-8.908428 17.969020 5.723486 -30.460503 80.797503 -15.094222 -1.364340 -0.719318 0.195841 -3.969863 -1.875208 -26.814638 0.557804 8.519280 24.588904 0.257054 0.059174 0.397030 0.894500 -6.028100 -16.865800 5.516269 1.034720 0.579919 8.115370 9.354305 -28.474955 -1.709864 -8.315182 24.302479 0.259972 -2.445990 1.306731 -0.046400 1.390400 -3.823700 -1.736228 0.407703 4.746289 3.959733 0.368114 9.234091 4.825861 0.179765 0.679720 0.952105 -1.470096 -9.835531 -0.631343 1.955780 37.642902 -1.690400 2.152400 19.259600 0.394104 5.395492 -2.024526 -96.593138 -17.263994 83.429314 32.139685 -44.937004 -12.670983 -0.684718 1.119076 -62.573621 19.068476 63.071718 16.396000 -7.125000 0.000000 0.000000 167.681600 4.066300 11.692500 0.555212 -4.167062 -1.999515 85.626595 15.552040 76.299106 -36.207996 47.932254 -15.798054 -0.286999 -0.638598 -63.236611 -43.562371 -13.647041 12.454400 7.125000 0.000000 0.000000 -15.063700 -47.876700 1.092500 
-8.908227 17.968719 5.718480 -30.230929 80.933167 -14.866995 -1.374624 -0.723375 0.192631 -4.058827 -2.000427 -26.801706 0.547221 8.513451 24.566030 0.251232 0.080841 0.381570 0.894400 -6.027700 -16.864800 5.516485 1.041681 0.580168 7.990166 9.282095 -28.485326 -1.710606 -8.320375 24.311282 0.265505 -2.484284 1.296928 -0.036400 1.230700 -3.383800 -1.777691 0.393089 4.746796 3.947742 0.346269 9.230738 4.848191 0.169117 0.678539 0.943546 -1.488224 -9.781024 -0.666769 1.931282 37.588747 -1.711600 2.137200 19.209800 0.394393 5.394091 -2.024856 -96.602941 -17.251660 83.521350 32.171915 -44.964691 -12.699045 -0.679709 1.123346 -62.588984 19.330496 62.834299 16.594400 -7.125000 0.000000 0.000000 167.804200 3.872200 11.615400 0.556278 -4.168446 -1.998936 85.662166 15.526449 76.222736 -36.165769 47.903593 -15.766744 -0.287757 -0.638228 -63.161999 -43.561542 -13.652387 12.458600 7.125000 0.000000 0.000000 -15.063700 -47.883300 1.095000 
-8.908127 17.968319 5.714576 -29.959709 81.014598 -14.595729 -1.380716 -0.724316 0.192700 -4.143824 -2.052411 -26.798345 0.538790 8.507556 24.546004 0.250218 0.080543 0.366279 0.908700 -6.074500 -17.000800 5.518610 1.047181 0.579965 7.880875 9.250462 -28.489537 -1.711439 -8.324128 24.319017 0.267254 -2.497842 1.302689 -0.025700 1.034600 -2.844100 -1.803603 0.383361 4.740822 3.909818 0.331378 9.235898 4.852413 0.160499 0.686041 0.959446 -1.486889 -9.764180 -0.675088 1.926696 37.564950 -1.719700 2.136400 19.190100 0.396103 5.394072 -2.024781 -96.606134 -17.239637 83.482825 32.158137 -44.955843 -12.692013 -0.676164 1.123604 -62.524562 19.107661 62.716584 16.375000 -7.125000 0.000000 0.000000 167.762000 3.731200 11.690300 0.558659 -4.169604 -1.997153 85.783093 15.511257 76.157592 -36.031252 47.814431 -15.670964 -0.289152 -0.637014 -63.010817 -43.439008 -13.657052 12.410500 7.125000 0.000000 0.000000 -14.939300 -47.864500 1.078500 
-8.908928 17.968219 5.713275 -30.009219 81.086918 -14.636200 -1.385576 -0.728588 0.190847 -4.168554 -2.078874 -26.808337 0.532642 8.499306 24.520660 0.260068 0.029623 0.370152 0.930400 -6.144500 -17.204400 5.516238 1.047867 0.580907 7.848427 9.221771 -28.499039 -1.711033 -8.324321 24.318191 0.267516 -2.498831 1.282928 -0.021600 0.948100 -2.606100 -1.799866 0.386758 4.721426 3.892198 0.335402 9.255778 4.844870 0.161787 0.708760 1.001994 -1.499358 -9.759088 -0.684899 1.885294 37.512811 -1.739600 2.124300 19.154200 0.396789 5.392359 -2.025425 -96.617370 -17.259687 83.451502 32.135302 -44.938293 -12.676047 -0.676690 1.119715 -62.501610 18.650409 62.749675 15.969400 -7.125000 0.000000 0.000000 167.622600 3.706400 11.835800 0.558408 -4.171971 -1.996369 85.872150 15.520307 76.075664 -35.911998 47.734545 -15.585333 -0.290320 -0.637080 -62.904785 -43.379242 -13.690409 12.413500 7.125000 0.000000 0.000000 -14.882700 -47.895000 1.085600 
-8.908728 17.969020 5.712073 -30.380282 81.155546 -15.041640 -1.396586 -0.731841 0.192118 -4.142039 -2.113659 -26.772148 0.530155 8.492729 24.503792 0.263723 0.012172 0.361567 0.966400 -6.259100 -17.538200 5.511058 1.039471 0.582875 7.859699 9.276691 -28.412951 -1.707663 -8.323173 24.303475 0.288214 -2.631996 1.198061 -0.020400 0.921400 -2.532600 -1.729082 0.411419 4.753961 3.881205 0.371659 9.277751 4.796869 0.180068 0.698461 1.026097 -1.544970 -9.736243 -0.656374 1.794166 37.477852 -1.744600 2.098100 19.118400 0.397349 5.393493 -2.025756 -96.602769 -17.252065 83.492299 32.131884 -44.938239 -12.678410 -0.677152 1.110515 -62.551402 17.586389 62.684149 15.005900 -7.125000 0.000000 0.000000 167.322600 3.518400 12.182600 0.557823 -4.173088 -1.996487 85.904024 15.508349 75.976563 -35.890121 47.719818 -15.569225 -0.290846 -0.637055 -62.850576 -43.380531 -13.719058 12.438500 7.125000 0.000000 0.000000 -14.888200 -47.931800 1.099800 
-8.907326 17.970722 5.709270 -30.468722 81.197971 -15.201177 -1.407380 -0.729493 0.198265 -4.151795 -2.135115 -26.704811 0.530043 8.490926 24.505002 0.265443 -0.001205 0.396519 0.941700 -6.180900 -17.310100 5.509637 1.033269 0.585647 7.833242 9.322981 -28.285226 -1.701508 -8.319795 24.275057 0.307699 -2.761231 1.163670 -0.022600 0.971300 -2.669800 -1.619693 0.447703 4.845706 3.791352 0.425597 9.278833 4.697957 0.204709 0.636584 1.044250 -1.616157 -9.719273 -0.606662 1.675072 37.501782 -1.741200 2.066600 19.116500 0.401062 5.398316 -2.026645 -96.524357 -17.189134 83.539820 32.150157 -44.953431 -12.687590 -0.679648 1.119649 -62.629252 18.695542 62.701814 16.002400 -7.125000 0.000000 0.000000 167.645300 3.664100 11.822900 0.563414 -4.172469 -1.994673 85.990272 15.462222 75.894502 -35.908039 47.730624 -15.580326 -0.292392 -0.635956 -62.886574 -43.528573 -13.638064 12.434200 7.125000 0.000000 0.000000 -15.028000 -47.861400 1.084000 
